<svg width="108" height="40" viewBox="0 0 108 40" fill="none" xmlns="http://www.w3.org/2000/svg">
<path d="M13.5657 1.14502V25.4583C13.5657 27.5065 13.4152 29.1694 13.1178 30.4542C12.8186 31.7409 12.2793 32.9666 11.4982 34.1403C10.4 35.814 8.90762 37.1561 7.01932 38.1614C5.13102 39.1649 3.10656 39.6667 0.949525 39.6667C0.87428 39.6667 0.557174 39.647 0 39.6093V38.8567C0.281274 38.8764 0.594797 38.8854 0.949525 38.8854C3.10656 38.8854 5.12206 38.355 6.99065 37.2959C8.85925 36.2333 10.2871 34.8212 11.2725 33.0508C11.8494 32.0096 12.2507 30.9184 12.4728 29.7715C12.695 28.6264 12.8096 27.1893 12.8096 25.4601V1.14502H13.5657ZM8.98824 1.14502H11.8637V25.4583C11.8637 27.3183 11.7329 28.82 11.4713 29.965C11.2098 31.1119 10.7475 32.1835 10.0775 33.1888C9.12798 34.6617 7.83806 35.8176 6.20954 36.6651C4.58101 37.5127 2.83962 37.9339 0.979982 37.9339C0.847406 37.9339 0.721997 37.9285 0.601963 37.9195C0.481929 37.9123 0.283067 37.907 0.00358388 37.907V35.2549H0.421014C1.52103 35.2549 2.60134 35.0685 3.65836 34.6958C4.72075 34.3249 5.59324 33.841 6.2812 33.2443C7.24864 32.4272 7.94376 31.4488 8.36119 30.3145C8.77863 29.1819 8.99003 27.7573 8.99003 26.0442V25.4583V1.14502H8.98824Z" fill="#F05841"/>
<path d="M53.4781 20.1828C53.4781 18.0808 53.0893 16.0953 52.3064 14.2371C51.5271 12.377 50.436 10.7463 49.0404 9.35219C47.6483 7.95805 46.0234 6.86137 44.1745 6.05857C42.3221 5.25936 40.346 4.85976 38.2445 4.85976C35.507 4.85976 32.963 5.54966 30.6106 6.9223C28.2565 8.30031 26.4023 10.1693 25.0425 12.5222C23.6845 14.875 23.0055 17.4303 23.0055 20.1845C23.0055 22.9388 23.6845 25.4995 25.0425 27.8595C26.4023 30.2231 28.2565 32.0921 30.6106 33.4701C32.963 34.8481 35.507 35.5362 38.2445 35.5362C40.9784 35.5362 43.5224 34.8481 45.8747 33.4701C48.2288 32.0921 50.0849 30.2231 51.4429 27.8595C52.7991 25.4959 53.4781 22.9352 53.4781 20.1828ZM54.2323 20.1828C54.2323 22.3403 53.8221 24.4064 53.0051 26.3811C52.1864 28.3505 51.0416 30.0708 49.5725 31.5437C48.1034 33.0114 46.3871 34.1725 44.4253 35.0165C42.4618 35.8659 40.4015 36.2888 38.2427 36.2888C35.3189 36.2888 32.6405 35.5721 30.2058 34.1385C27.7657 32.7031 25.8326 30.7517 24.4011 28.2752C22.9679 25.8023 22.2512 23.1036 22.2512 20.181C22.2512 17.2601 22.9679 14.5704 24.4011 12.1136C25.8326 9.6604 27.7657 7.70896 30.2058 6.26644C32.6423 4.82392 35.3207 4.10355 38.2427 4.10355C40.3997 4.10355 42.46 4.5157 44.4253 5.34717C46.3871 6.17505 48.1052 7.32728 49.5725 8.80564C51.0416 10.2876 52.1864 12.0079 53.0051 13.97C53.8238 15.9358 54.2323 18.0037 54.2323 20.1828ZM55.18 20.1828C55.18 17.8568 54.7537 15.6688 53.8973 13.6224C53.0391 11.576 51.8263 9.76254 50.2551 8.17845C48.6821 6.59795 46.8672 5.36329 44.8123 4.48165C42.7574 3.59643 40.5663 3.15561 38.2427 3.15561C35.172 3.15561 32.3395 3.91361 29.7435 5.43318C27.1494 6.94738 25.0855 9.02247 23.5627 11.6548C22.038 14.2908 21.2748 17.1418 21.2748 20.2114C21.2748 23.281 22.038 26.1302 23.5627 28.7501C25.0855 31.3735 27.1494 33.445 29.7435 34.9628C32.3377 36.4806 35.172 37.2368 38.2427 37.2368C40.5663 37.2368 42.7502 36.7995 44.7872 35.9233C46.8224 35.0524 48.6319 33.8231 50.2156 32.2408C51.794 30.6603 53.0194 28.8361 53.8848 26.7682C54.7483 24.7039 55.18 22.5087 55.18 20.1828ZM58.0573 20.1828C58.0573 23.7738 57.1705 27.0872 55.404 30.1209C53.6375 33.1529 51.2279 35.5595 48.1751 37.3335C45.124 39.1112 41.8133 40 38.2427 40C34.6703 40 31.3577 39.1112 28.3067 37.3335C25.2557 35.5595 22.846 33.1529 21.0796 30.1209C19.3113 27.0872 18.4263 23.7738 18.4263 20.1828C18.4263 16.6114 19.3113 13.307 21.0796 10.275C22.8443 7.24305 25.2557 4.83646 28.3067 3.05705C31.3577 1.28122 34.6703 0.390625 38.2427 0.390625C41.8133 0.390625 45.1258 1.27943 48.1751 3.05705C51.2261 4.83646 53.6375 7.24305 55.404 10.275C57.1705 13.307 58.0573 16.6096 58.0573 20.1828Z" fill="#F05841"/>
<path d="M58.3311 5.52636H66.5364V4.77552H58.3311V5.52636ZM71.2768 4.77373V39.2456H72.0597V5.52636H81.1841V4.77373H71.2768ZM58.3311 1.14502V3.8222H67.4841V39.2456H70.3309V3.824H81.1841V1.14681H58.3311V1.14502Z" fill="#F05841"/>
<path d="M86.4231 27.2449L82.0427 39.2474H82.8489L86.9534 27.9975H98.5053L102.61 39.2474H103.416L99.0357 27.2449H86.4231ZM88.1502 22.6664H88.9617L92.7294 12.5042L96.497 22.6664H97.3086L92.7294 10.3288L88.1502 22.6664ZM92.7294 7.59071L98.6738 23.6144H86.7832L92.7294 7.59071ZM92.7294 0L77.9688 39.2474H81.0072L85.7531 26.2951H99.7057L104.452 39.2474H107.495L92.7294 0Z" fill="#F05841"/>
</svg>
